<?xml version="1.0" standalone="no"?>
<!DOCTYPE svg PUBLIC "-//W3C//DTD SVG 20010904//EN"
 "http://www.w3.org/TR/2001/REC-SVG-20010904/DTD/svg10.dtd">
<svg version="1.0" xmlns="http://www.w3.org/2000/svg"
 width="590.000000pt" height="590.000000pt" viewBox="0 0 590.000000 590.000000"
 preserveAspectRatio="xMidYMid meet">
<metadata>
Created by potrace 1.14, written by Peter Selinger 2001-2017
</metadata>
<g transform="translate(0.000000,590.000000) scale(0.100000,-0.100000)"
fill="#000000" stroke="none">
<path d="M1284 5809 c-60 -50 -120 -101 -134 -113 -14 -12 -81 -68 -150 -125
-69 -57 -141 -117 -160 -133 -19 -17 -55 -46 -79 -66 -58 -48 -189 -159 -221
-186 -14 -11 -50 -41 -80 -66 -30 -25 -60 -49 -66 -55 -6 -5 -32 -28 -59 -50
-133 -110 -242 -202 -262 -220 l-22 -20 175 -210 c96 -115 181 -216 187 -223
10 -10 53 21 212 154 178 149 253 211 317 266 10 9 37 31 60 50 23 18 46 38
52 43 6 6 36 30 66 55 30 25 57 47 60 50 3 3 43 37 90 75 47 38 91 75 98 82 7
7 34 29 60 50 26 21 49 40 52 43 3 3 46 39 95 80 50 41 96 81 103 88 8 7 29
24 48 38 19 15 34 30 34 34 0 10 -19 34 -249 309 -62 75 -114 137 -115 138 -1
2 -51 -38 -112 -88z"/>
<path d="M4474 5863 c-16 -21 -36 -47 -46 -58 -9 -11 -26 -30 -36 -43 -11 -13
-35 -41 -52 -62 -17 -21 -40 -48 -50 -60 -10 -12 -33 -39 -52 -62 -18 -23 -48
-57 -65 -77 -18 -20 -33 -41 -33 -47 0 -6 30 -35 66 -64 37 -30 72 -59 78 -65
6 -5 36 -30 66 -55 30 -25 57 -47 60 -50 3 -4 86 -73 185 -155 99 -82 182
-152 185 -155 3 -4 73 -62 155 -130 83 -68 152 -127 155 -130 3 -3 30 -25 60
-50 30 -25 57 -47 60 -50 3 -3 43 -37 90 -75 90 -74 111 -92 149 -124 13 -12
25 -21 26 -21 1 0 33 37 71 83 38 45 73 87 79 93 5 6 26 30 45 54 42 52 138
167 163 194 20 24 28 14 -123 140 -52 43 -117 98 -145 121 -54 46 -379 317
-705 589 -113 94 -210 175 -216 181 -6 5 -29 25 -52 43 -23 19 -51 42 -63 53
-12 10 -23 19 -24 19 -2 0 -15 -17 -31 -37z"/>
<path d="M2740 5253 c-43 -4 -183 -22 -230 -29 -143 -22 -411 -98 -526 -149
-30 -13 -57 -24 -60 -24 -13 1 -206 -97 -292 -147 -88 -51 -249 -159 -262
-174 -3 -3 -14 -13 -26 -21 -81 -56 -333 -297 -405 -388 -18 -24 -49 -62 -68
-85 -53 -65 -173 -251 -234 -363 -254 -470 -359 -1033 -292 -1573 27 -212 109
-520 181 -678 13 -29 24 -55 24 -58 0 -2 25 -54 55 -115 68 -136 170 -297 272
-432 86 -113 290 -323 398 -411 39 -32 79 -65 90 -74 49 -39 230 -156 330
-211 214 -119 548 -240 760 -275 222 -37 268 -41 500 -40 253 0 328 8 583 60
225 45 578 192 797 330 233 146 503 386 658 584 37 47 71 90 77 97 65 79 211
333 272 471 15 35 34 78 42 95 35 77 116 341 132 432 3 17 9 48 14 70 5 22 12
63 15 90 4 28 8 61 11 75 17 95 23 392 11 530 -13 153 -35 283 -73 435 -14 55
-27 107 -29 115 -16 66 -99 272 -159 395 -87 177 -156 288 -274 445 -77 102
-290 328 -380 403 -109 92 -313 237 -332 237 -5 0 -10 4 -12 9 -5 13 -245 135
-355 181 -129 54 -318 114 -439 139 -133 27 -149 30 -219 37 -33 4 -64 9 -69
12 -10 6 -430 10 -486 5z m411 -587 c78 -8 93 -10 228 -37 321 -64 682 -249
935 -479 221 -200 403 -456 518 -725 52 -121 114 -341 133 -467 2 -18 9 -60
14 -93 17 -110 6 -456 -18 -590 -24 -131 -22 -126 -81 -305 -185 -559 -626
-1022 -1185 -1243 -95 -38 -247 -84 -305 -93 -19 -3 -38 -8 -41 -9 -12 -8
-138 -25 -229 -32 -164 -12 -369 -6 -463 13 -12 2 -35 6 -52 9 -292 41 -678
214 -926 415 -264 213 -478 496 -609 805 -35 83 -95 261 -105 314 -2 12 -6 30
-9 39 -3 9 -8 37 -12 62 -3 25 -12 81 -19 125 -13 80 -14 444 -1 515 42 243
83 396 143 530 178 399 416 686 759 915 228 153 522 270 779 311 17 3 41 7 55
10 14 2 63 7 110 10 47 4 86 7 87 8 6 5 234 -2 294 -8z"/>
<path d="M2277 3704 c-1 -1 -29 -5 -61 -9 -190 -21 -365 -151 -446 -328 -33
-73 -36 -86 -55 -212 -8 -49 -16 -106 -19 -125 -3 -19 -15 -100 -26 -180 -11
-80 -22 -158 -25 -175 -36 -255 -46 -325 -50 -350 -2 -16 -11 -82 -20 -145
-21 -142 -16 -218 19 -292 89 -188 305 -267 488 -179 51 25 98 65 249 214
l186 184 432 0 433 1 186 -186 c152 -152 197 -190 247 -213 261 -122 548 84
521 374 -3 34 -8 73 -11 87 -3 14 -8 50 -11 80 -3 30 -7 57 -9 60 -2 3 -6 34
-10 70 -3 35 -8 67 -10 70 -1 3 -6 34 -10 70 -4 36 -8 67 -10 70 -1 3 -6 32
-10 65 -3 33 -20 150 -36 260 -16 110 -32 218 -34 240 -13 98 -29 155 -63 224
-82 168 -255 293 -437 317 -47 5 -1402 13 -1408 8z m235 -447 c3 -7 4 -72 3
-144 0 -73 2 -133 5 -134 3 0 68 -1 145 -2 l140 -2 0 -70 0 -70 -143 0 c-87 0
-143 -4 -143 -10 -1 -5 -3 -66 -4 -135 -1 -69 -3 -130 -4 -137 -1 -7 -24 -11
-68 -10 l-68 2 -5 144 -5 145 -142 -2 -141 -1 0 73 0 74 142 -1 141 -1 3 146
3 145 68 1 c45 0 71 -3 73 -11z m943 -9 c42 -22 74 -85 70 -137 -6 -71 -49
-117 -125 -131 -74 -13 -160 62 -160 139 0 110 117 180 215 129z m285 -433
c64 -33 94 -124 63 -190 -36 -74 -145 -104 -211 -56 -63 45 -80 122 -41 191
36 63 124 89 189 55z"/>
</g>
</svg>
