<?xml version="1.0" standalone="no"?>
<!DOCTYPE svg PUBLIC "-//W3C//DTD SVG 20010904//EN"
 "http://www.w3.org/TR/2001/REC-SVG-20010904/DTD/svg10.dtd">
<svg version="1.0" xmlns="http://www.w3.org/2000/svg"
 width="118.000000pt" height="118.000000pt" viewBox="0 0 118.000000 118.000000"
 preserveAspectRatio="xMidYMid meet">
<metadata>
Created by potrace 1.14, written by Peter Selinger 2001-2017
</metadata>
<g transform="translate(0.000000,118.000000) scale(0.100000,-0.100000)"
fill="#000000" stroke="none">
<path d="M239 1148 c-20 -18 -80 -68 -133 -112 l-96 -78 19 -27 c10 -14 28
-34 39 -45 21 -18 22 -17 151 90 71 60 130 111 130 114 1 3 -16 24 -37 48
l-37 42 -36 -32z"/>
<path d="M864 1135 c-20 -25 -35 -47 -33 -49 2 -2 62 -52 134 -111 l129 -108
38 43 c44 49 50 36 -57 125 -33 27 -62 52 -65 55 -3 3 -28 24 -57 48 l-51 42
-38 -45z"/>
<path d="M455 1035 c-170 -47 -313 -185 -366 -354 -28 -90 -28 -222 0 -312 71
-225 285 -375 522 -365 393 15 628 437 434 781 -97 171 -266 267 -468 264 -40
0 -94 -7 -122 -14z m260 -121 c289 -90 377 -468 158 -680 -261 -254 -700 -59
-688 304 6 200 133 344 350 396 26 7 135 -6 180 -20z"/>
<path d="M405 729 c-30 -15 -54 -53 -60 -96 -3 -21 -8 -49 -10 -63 -3 -14 -7
-43 -10 -65 -3 -22 -8 -53 -11 -68 -13 -63 40 -116 95 -95 13 4 40 24 60 43
35 35 37 35 123 35 86 0 88 -1 120 -34 45 -45 67 -55 104 -45 51 14 56 43 35
192 -18 134 -33 169 -82 194 -29 16 -334 17 -364 2z m124 -134 c27 0 42 -24
17 -26 -9 -1 -22 -2 -28 -3 -7 0 -14 -8 -14 -16 -1 -8 -2 -21 -3 -27 0 -7 -8
-13 -16 -13 -9 0 -15 6 -14 13 5 39 -1 49 -26 44 -20 -3 -25 -1 -23 12 2 9 10
17 18 17 8 1 20 2 26 3 6 0 10 11 9 24 -3 36 19 41 25 4 4 -26 10 -32 29 -32z
m174 43 c7 -23 -4 -38 -29 -38 -17 0 -24 6 -24 18 0 10 3 22 7 25 11 12 41 8
46 -5z m55 -102 c-2 -13 -10 -21 -23 -21 -23 0 -33 34 -14 45 20 13 40 -1 37
-24z"/>
</g>
</svg>
